<svg width="132" height="28" viewBox="0 0 132 28" fill="none" xmlns="http://www.w3.org/2000/svg">
<path d="M0 9.33594V14.2604C1.65275 14.2593 3.28951 14.5899 4.81662 15.2335C6.34372 15.8771 7.73121 16.8209 8.89969 18.011C10.0679 19.2007 10.9943 20.6132 11.626 22.1677C12.2577 23.7221 12.5823 25.3881 12.5812 27.0704H17.4144C17.41 22.3689 15.574 17.8612 12.3092 14.5364C9.04442 11.2116 4.61755 9.34131 0 9.33594H0Z" fill="black"/>
<path d="M24.1702 0.470215H16.5107C20.3855 2.97036 23.6687 6.31277 26.1247 10.2576V2.45891C26.1244 1.93135 25.9183 1.42552 25.5518 1.05261C25.1853 0.679693 24.6883 0.470215 24.1702 0.470215V0.470215Z" fill="black"/>
<path d="M4.8125 0.470215H0V4.90401C5.77208 4.91013 11.306 7.24743 15.3876 11.4031C19.4691 15.5587 21.7649 21.1932 21.7711 27.0702H26.125V22.1702C25.1406 16.7848 22.5775 11.8291 18.7732 7.95566C14.9689 4.0822 10.1018 1.47253 4.8125 0.470215V0.470215Z" fill="black"/>
<path d="M37.9709 3.39844H34.9033V19.1414H37.9709V3.39844Z" fill="black"/>
<path d="M49.2502 10.2191C48.7395 9.74643 48.1417 9.38168 47.4916 9.146C46.0949 8.64665 44.5728 8.64665 43.1761 9.146C42.5257 9.38151 41.9276 9.74628 41.4168 10.2191C40.9158 10.6894 40.5156 11.2599 40.2412 11.8949C39.9576 12.5877 39.8115 13.3308 39.8115 14.0813C39.8115 14.8319 39.9576 15.575 40.2412 16.2678C40.5146 16.9046 40.9149 17.4767 41.4168 17.9478C41.9267 18.421 42.5244 18.7856 43.1747 19.0202C44.5713 19.5204 46.0937 19.5204 47.4902 19.0202C48.1407 18.7856 48.7386 18.421 49.2488 17.9478C49.7505 17.4765 50.1508 16.9045 50.4244 16.2678C50.7081 15.575 50.8541 14.8319 50.8541 14.0813C50.8541 13.3308 50.7081 12.5877 50.4244 11.8949C50.1503 11.2601 49.7505 10.6896 49.2502 10.2191ZM47.1437 15.9353C46.6469 16.3909 46.0021 16.643 45.3335 16.643C44.6649 16.643 44.0201 16.3909 43.5233 15.9353C43.1058 15.4105 42.878 14.7557 42.878 14.0803C42.878 13.4049 43.1058 12.7501 43.5233 12.2253C44.0201 11.7697 44.6649 11.5176 45.3335 11.5176C46.0021 11.5176 46.6469 11.7697 47.1437 12.2253C47.5612 12.7501 47.789 13.4049 47.789 14.0803C47.789 14.7557 47.5612 15.4105 47.1437 15.9353V15.9353Z" fill="black"/>
<path d="M60.263 10.3543H60.2245C60.0827 10.1515 59.9179 9.96641 59.7337 9.80272C59.5105 9.60168 59.2633 9.43 58.998 9.29172C58.3275 8.94143 57.5832 8.7629 56.8297 8.77162C56.1693 8.75985 55.5162 8.91371 54.9281 9.21962C54.38 9.50858 53.8961 9.90909 53.5063 10.3963C53.1088 10.8985 52.8039 11.4698 52.6064 12.0826C52.3963 12.7139 52.2892 13.376 52.2894 14.0426C52.2817 14.7581 52.3995 15.4693 52.6373 16.1426C52.8528 16.7571 53.1887 17.3206 53.6245 17.7988C54.0588 18.2668 54.5859 18.6355 55.1707 18.8803C55.8066 19.1442 56.4882 19.2751 57.1748 19.2653C57.6827 19.2564 58.1848 19.1542 58.657 18.9636C59.1866 18.7591 59.6454 18.4005 59.9764 17.9325H60.0176V18.9125C60.0291 19.2394 59.9762 19.5653 59.862 19.871C59.7478 20.1768 59.5747 20.4561 59.3528 20.6926C59.0712 20.9463 58.7421 21.1391 58.3852 21.2594C58.0283 21.3797 57.6511 21.425 57.2765 21.3926C56.6826 21.3994 56.0939 21.2787 55.5489 21.0384C55.0065 20.7917 54.5005 20.4694 54.0453 20.0808L52.3479 22.6603C53.0417 23.2293 53.8527 23.6316 54.7204 23.837C55.5791 24.038 56.4574 24.1393 57.3384 24.1387C59.2744 24.1387 60.7161 23.6424 61.6635 22.6498C62.6109 21.6572 63.0848 20.2031 63.0852 18.2874V9.02153H60.2665L60.263 10.3543ZM60.0788 14.9666C59.9578 15.2629 59.7804 15.532 59.557 15.7583C59.3295 15.9891 59.0628 16.176 58.7698 16.3099C58.4656 16.4475 58.1364 16.5186 57.8035 16.5186C57.4706 16.5186 57.1415 16.4475 56.8372 16.3099C56.5482 16.1741 56.2849 15.9874 56.0597 15.7583C55.8353 15.5301 55.6572 15.259 55.5357 14.9607C55.4143 14.6623 55.3518 14.3425 55.3518 14.0195C55.3518 13.6966 55.4143 13.3767 55.5357 13.0784C55.6572 12.78 55.8353 12.509 56.0597 12.2807C56.2851 12.0516 56.5483 11.8647 56.8372 11.7284C57.1416 11.5913 57.4707 11.5205 57.8035 11.5205C58.1363 11.5205 58.4654 11.5913 58.7698 11.7284C59.0627 11.8628 59.3293 12.0499 59.557 12.2807C59.8945 12.6261 60.1241 13.0654 60.2169 13.5433C60.3098 14.0212 60.2617 14.5164 60.0788 14.9666V14.9666Z" fill="black"/>
<path d="M74.6105 10.2191C74.0998 9.74643 73.5021 9.38168 72.8519 9.146C71.4552 8.64665 69.9331 8.64665 68.5365 9.146C67.886 9.38151 67.288 9.74628 66.7772 10.2191C66.2762 10.6894 65.8759 11.2599 65.6015 11.8949C65.3179 12.5877 65.1719 13.3308 65.1719 14.0813C65.1719 14.8319 65.3179 15.575 65.6015 16.2678C65.8749 16.9046 66.2752 17.4767 66.7772 17.9478C67.2875 18.4211 67.8857 18.7857 68.5365 19.0202C69.933 19.5204 71.4554 19.5204 72.8519 19.0202C73.5024 18.7856 74.1003 18.421 74.6105 17.9478C75.1124 17.4767 75.5128 16.9046 75.7862 16.2678C76.0698 15.575 76.2158 14.8319 76.2158 14.0813C76.2158 13.3308 76.0698 12.5877 75.7862 11.8949C75.5117 11.2599 75.1115 10.6894 74.6105 10.2191V10.2191ZM72.504 15.9353C72.0073 16.3909 71.3624 16.643 70.6938 16.643C70.0253 16.643 69.3804 16.3909 68.8837 15.9353C68.4661 15.4105 68.2383 14.7557 68.2383 14.0803C68.2383 13.4049 68.4661 12.7501 68.8837 12.2253C69.3804 11.7697 70.0253 11.5176 70.6938 11.5176C71.3624 11.5176 72.0073 11.7697 72.504 12.2253C72.9215 12.7501 73.1494 13.4049 73.1494 14.0803C73.1494 14.7557 72.9215 15.4105 72.504 15.9353Z" fill="black"/>
<path d="M80.2848 9.09131H78.6396V19.1412H80.2848V9.09131Z" fill="black"/>
<path d="M79.4623 3.93821C79.3027 3.93512 79.1443 3.96597 78.9972 4.02876C78.85 4.09156 78.7174 4.18493 78.6077 4.30291C78.4404 4.47463 78.3268 4.69291 78.2812 4.93026C78.2356 5.16762 78.26 5.41341 78.3513 5.63666C78.4427 5.85992 78.5969 6.05064 78.7945 6.1848C78.9922 6.31896 79.2244 6.39055 79.4619 6.39055C79.6994 6.39055 79.9317 6.31896 80.1293 6.1848C80.3269 6.05064 80.4812 5.85992 80.5725 5.63666C80.6639 5.41341 80.6883 5.16762 80.6426 4.93026C80.597 4.69291 80.4834 4.47463 80.3161 4.30291C80.2066 4.18488 80.0741 4.09147 79.9271 4.02866C79.78 3.96586 79.6217 3.93505 79.4623 3.93821V3.93821Z" fill="black"/>
<path d="M92.4547 10.3404C91.9919 9.85932 91.4352 9.48232 90.8205 9.23372C90.1459 8.96297 89.426 8.82817 88.7009 8.83682C88.0179 8.82883 87.3424 8.98344 86.7285 9.28832C86.1238 9.5945 85.5885 10.0258 85.1568 10.5546H85.1129V9.09162H83.4697V24.038H85.1129V17.36H85.1548C85.504 17.9725 86.013 18.4745 86.6253 18.8104C87.3362 19.2157 88.1408 19.4197 88.9553 19.4012C89.6222 19.4055 90.2828 19.2702 90.8961 19.0036C91.4883 18.7478 92.0229 18.3715 92.467 17.8976C92.918 17.4133 93.2727 16.8448 93.5114 16.2232C94.0174 14.8672 94.0174 13.3694 93.5114 12.0134C93.2706 11.3904 92.9115 10.8219 92.4547 10.3404V10.3404ZM91.8744 15.5904C91.7211 16.028 91.4812 16.4289 91.1696 16.7683C90.858 17.1077 90.4813 17.3784 90.0629 17.5637C89.1376 17.9495 88.1006 17.9495 87.1754 17.5637C86.7563 17.3785 86.3791 17.1075 86.0671 16.7677C85.7552 16.4279 85.5151 16.0265 85.3617 15.5883C85.0388 14.6359 85.0388 13.6007 85.3617 12.6483C85.5151 12.2102 85.7552 11.8087 86.0671 11.4689C86.3791 11.1291 86.7563 10.8582 87.1754 10.6729C88.1006 10.2871 89.1376 10.2871 90.0629 10.6729C90.4819 10.8582 90.8591 11.1291 91.1711 11.4689C91.483 11.8087 91.7231 12.2102 91.8765 12.6483C92.1994 13.6007 92.1994 14.6359 91.8765 15.5883L91.8744 15.5904Z" fill="black"/>
<path d="M102.178 14.12C101.866 13.882 101.517 13.6971 101.147 13.5726C100.74 13.4328 100.324 13.3215 99.9024 13.2394C99.5862 13.1844 99.273 13.1129 98.964 13.0252C98.6886 12.949 98.4204 12.8483 98.1624 12.7242C97.9557 12.6288 97.769 12.4938 97.6124 12.3266C97.4791 12.1771 97.4075 11.9811 97.4123 11.7792C97.4091 11.5614 97.4717 11.3478 97.5918 11.1674C97.71 10.9892 97.8645 10.8391 98.0448 10.7271C98.2378 10.6083 98.448 10.5214 98.6677 10.4695C98.8926 10.4128 99.1235 10.3839 99.3552 10.3834C99.7962 10.3694 100.232 10.4851 100.61 10.7166C100.951 10.9353 101.237 11.2332 101.443 11.586L102.814 10.6627C102.51 10.0524 102.017 9.56149 101.411 9.26621C100.8 8.97737 100.134 8.83078 99.4604 8.83711C99.0038 8.836 98.5494 8.90105 98.1108 9.03031C97.6904 9.15239 97.2915 9.34139 96.929 9.59031C96.5824 9.82858 96.2938 10.1444 96.0854 10.5136C95.8697 10.9068 95.7605 11.3513 95.7692 11.8016C95.752 12.2424 95.8502 12.6799 96.0538 13.0693C96.2395 13.395 96.4988 13.6709 96.8101 13.8743C97.1537 14.095 97.5264 14.2649 97.9169 14.379C98.3391 14.5078 98.782 14.6224 99.2459 14.7227C99.5135 14.7801 99.7737 14.8445 100.026 14.9159C100.263 14.9806 100.49 15.0782 100.701 15.2057C100.887 15.318 101.049 15.4679 101.176 15.646C101.302 15.8433 101.365 16.0762 101.355 16.3117C101.363 16.5592 101.297 16.8032 101.165 17.0117C101.034 17.2093 100.861 17.3744 100.659 17.4947C100.441 17.6274 100.202 17.7221 99.9526 17.7747C99.6997 17.8313 99.4416 17.8601 99.1826 17.8608C98.6701 17.881 98.1623 17.7544 97.7169 17.4954C97.3072 17.2299 96.9467 16.893 96.6519 16.5L95.3457 17.5311C95.7501 18.1705 96.3241 18.6802 97.0012 19.0011C97.6952 19.2816 98.4376 19.4168 99.184 19.3987C99.6702 19.3991 100.155 19.3416 100.628 19.2272C101.078 19.1213 101.506 18.936 101.893 18.6798C102.263 18.4298 102.57 18.0939 102.787 17.6998C103.023 17.2525 103.14 16.75 103.125 16.2424C103.139 15.806 103.052 15.3725 102.872 14.9761C102.709 14.6401 102.471 14.3471 102.178 14.12V14.12Z" fill="black"/>
<path d="M114.03 16.7577V9.09131H112.385V13.9913C112.39 14.5196 112.33 15.0464 112.205 15.5593C112.1 15.999 111.913 16.4142 111.655 16.7829C111.41 17.1257 111.084 17.3991 110.706 17.5774C110.272 17.7738 109.8 17.8695 109.325 17.8574C109.003 17.8839 108.68 17.8314 108.383 17.7043C108.086 17.5773 107.823 17.3794 107.616 17.1273C107.221 16.5418 107.028 15.8395 107.066 15.1302V9.09131H105.421V15.2975C105.416 15.8601 105.491 16.4205 105.643 16.9614C105.775 17.441 106.01 17.8849 106.33 18.2613C106.651 18.6293 107.051 18.9168 107.499 19.1013C108.033 19.3135 108.603 19.4158 109.176 19.4023C109.561 19.4055 109.945 19.351 110.315 19.2406C110.649 19.1416 110.968 18.9973 111.264 18.8115C111.533 18.6428 111.777 18.4369 111.991 18.1997C112.183 17.9887 112.343 17.7497 112.466 17.4906H112.508C112.508 17.7776 112.515 18.0576 112.529 18.3306C112.543 18.6036 112.55 18.8757 112.55 19.1468H114.111C114.111 18.8169 114.097 18.4517 114.069 18.0513C114.04 17.6509 114.027 17.2197 114.03 16.7577Z" fill="black"/>
<path d="M131.81 11.293C131.7 10.8067 131.484 10.352 131.177 9.96299C130.867 9.58658 130.468 9.29736 130.017 9.12298C129.449 8.91442 128.848 8.81612 128.245 8.83319C127.59 8.80406 126.943 8.98022 126.389 9.33789C125.876 9.71257 125.445 10.1917 125.124 10.7449C125.04 10.5727 124.931 10.3758 124.797 10.1541C124.648 9.91474 124.459 9.70387 124.238 9.53108C123.967 9.32133 123.665 9.156 123.344 9.04109C122.913 8.89341 122.459 8.82422 122.004 8.83668C121.619 8.83345 121.235 8.88794 120.866 8.99839C120.532 9.09739 120.212 9.24172 119.916 9.42749C119.647 9.59645 119.403 9.80232 119.189 10.0393C118.997 10.2503 118.837 10.4893 118.715 10.7484H118.672C118.672 10.4614 118.665 10.1828 118.651 9.90839C118.638 9.63399 118.63 9.36449 118.63 9.09219H117.069C117.069 9.42212 117.083 9.78728 117.111 10.1877C117.139 10.5881 117.153 11.0177 117.153 11.4764V19.1421H118.8V14.2463C118.795 13.7178 118.855 13.1907 118.979 12.6776C119.084 12.2377 119.271 11.8224 119.529 11.454C119.774 11.1111 120.1 10.8376 120.478 10.6595C120.912 10.4629 121.385 10.3673 121.86 10.3795C122.141 10.355 122.424 10.4069 122.68 10.5298C122.935 10.6528 123.154 10.8424 123.315 11.0795C123.668 11.816 123.821 12.6354 123.758 13.4525V19.1435H125.4V13.3433C125.395 12.93 125.463 12.5191 125.601 12.1302C125.722 11.7854 125.909 11.4682 126.151 11.1964C126.378 10.9419 126.655 10.7373 126.962 10.5951C127.274 10.4516 127.612 10.3782 127.954 10.3802C128.36 10.3652 128.764 10.4459 129.135 10.6161C129.427 10.7598 129.68 10.9739 129.873 11.2398C130.058 11.503 130.187 11.8027 130.253 12.1197C130.323 12.4514 130.358 12.7898 130.358 13.1291V19.1421H132V13.043C132.006 12.454 131.942 11.8664 131.81 11.293Z" fill="black"/>
</svg>
