<svg width="132" height="28" viewBox="0 0 132 28" fill="none" xmlns="http://www.w3.org/2000/svg">
<path d="M0 9.33557V14.2601C1.65275 14.2589 3.28951 14.5896 4.81661 15.2331C6.34372 15.8767 7.73121 16.8206 8.89969 18.0107C10.0679 19.2004 10.9943 20.6128 11.626 22.1673C12.2577 23.7218 12.5823 25.3878 12.5812 27.0701H17.4144C17.41 22.3686 15.574 17.8608 12.3092 14.536C9.04442 11.2112 4.61755 9.34095 0 9.33557H0Z" fill="white"/>
<path d="M24.1702 0.470093H16.5107C20.3855 2.97024 23.6687 6.31265 26.1247 10.2575V2.45879C26.1244 1.93123 25.9183 1.4254 25.5518 1.05248C25.1853 0.679571 24.6883 0.470093 24.1702 0.470093Z" fill="white"/>
<path d="M4.8125 0.470093H0V4.90389C5.77208 4.91001 11.306 7.24731 15.3876 11.4029C19.4691 15.5586 21.7649 21.1931 21.7711 27.0701H26.125V22.1701C25.1406 16.7847 22.5775 11.829 18.7732 7.95554C14.9689 4.08208 10.1018 1.4724 4.8125 0.470093Z" fill="white"/>
<path d="M37.9709 3.39819H34.9033V19.1412H37.9709V3.39819Z" fill="white"/>
<path d="M49.2502 10.219C48.7395 9.74631 48.1417 9.38156 47.4916 9.14587C46.0949 8.64653 44.5728 8.64653 43.1761 9.14587C42.5257 9.38139 41.9276 9.74615 41.4168 10.219C40.9158 10.6892 40.5156 11.2597 40.2412 11.8948C39.9576 12.5876 39.8115 13.3307 39.8115 14.0812C39.8115 14.8318 39.9576 15.5749 40.2412 16.2677C40.5146 16.9045 40.9149 17.4766 41.4168 17.9477C41.9267 18.4208 42.5244 18.7855 43.1747 19.0201C44.5713 19.5203 46.0937 19.5203 47.4902 19.0201C48.1407 18.7854 48.7386 18.4208 49.2488 17.9477C49.7505 17.4764 50.1508 16.9044 50.4244 16.2677C50.7081 15.5749 50.8541 14.8318 50.8541 14.0812C50.8541 13.3307 50.7081 12.5876 50.4244 11.8948C50.1503 11.26 49.7505 10.6895 49.2502 10.219ZM47.1437 15.9352C46.6469 16.3908 46.0021 16.6429 45.3335 16.6429C44.6649 16.6429 44.0201 16.3908 43.5233 15.9352C43.1058 15.4104 42.878 14.7555 42.878 14.0802C42.878 13.4048 43.1058 12.75 43.5233 12.2252C44.0201 11.7696 44.6649 11.5174 45.3335 11.5174C46.0021 11.5174 46.6469 11.7696 47.1437 12.2252C47.5612 12.75 47.789 13.4048 47.789 14.0802C47.789 14.7555 47.5612 15.4104 47.1437 15.9352Z" fill="white"/>
<path d="M60.263 10.3541H60.2245C60.0827 10.1513 59.9179 9.96616 59.7337 9.80248C59.5105 9.60144 59.2633 9.42976 58.998 9.29148C58.3275 8.94118 57.5832 8.76266 56.8297 8.77138C56.1693 8.75961 55.5162 8.91346 54.928 9.21938C54.38 9.50833 53.8961 9.90884 53.5063 10.3961C53.1088 10.8983 52.8039 11.4696 52.6064 12.0824C52.3963 12.7137 52.2892 13.3758 52.2894 14.0424C52.2817 14.7579 52.3995 15.469 52.6373 16.1424C52.8528 16.7568 53.1887 17.3203 53.6245 17.7986C54.0588 18.2666 54.5859 18.6353 55.1707 18.8801C55.8066 19.144 56.4882 19.2749 57.1748 19.2651C57.6827 19.2562 58.1848 19.1539 58.657 18.9634C59.1866 18.7589 59.6454 18.4003 59.9764 17.9323H60.0176V18.9123C60.0291 19.2392 59.9762 19.5651 59.862 19.8708C59.7478 20.1765 59.5747 20.4559 59.3528 20.6924C59.0712 20.946 58.7421 21.1388 58.3852 21.2592C58.0283 21.3795 57.6511 21.4248 57.2765 21.3924C56.6826 21.3991 56.0939 21.2785 55.5489 21.0382C55.0065 20.7914 54.5005 20.4692 54.0453 20.0806L52.3479 22.6601C53.0417 23.2291 53.8527 23.6313 54.7204 23.8368C55.5791 24.0378 56.4574 24.139 57.3384 24.1385C59.2744 24.1385 60.7161 23.6422 61.6635 22.6496C62.6109 21.657 63.0848 20.2028 63.0852 18.2872V9.02128H60.2665L60.263 10.3541ZM60.0788 14.9664C59.9578 15.2627 59.7804 15.5318 59.557 15.7581C59.3295 15.9889 59.0628 16.1758 58.7698 16.3097C58.4656 16.4472 58.1364 16.5183 57.8035 16.5183C57.4706 16.5183 57.1415 16.4472 56.8372 16.3097C56.5482 16.1739 56.2849 15.9872 56.0597 15.7581C55.8353 15.5298 55.6572 15.2588 55.5357 14.9604C55.4143 14.6621 55.3518 14.3423 55.3518 14.0193C55.3518 13.6963 55.4143 13.3765 55.5357 13.0781C55.6572 12.7798 55.8353 12.5087 56.0597 12.2805C56.2851 12.0514 56.5483 11.8645 56.8372 11.7282C57.1416 11.5911 57.4707 11.5203 57.8035 11.5203C58.1363 11.5203 58.4654 11.5911 58.7698 11.7282C59.0627 11.8626 59.3293 12.0497 59.557 12.2805C59.8945 12.6259 60.1241 13.0651 60.2169 13.5431C60.3098 14.021 60.2617 14.5162 60.0788 14.9664Z" fill="white"/>
<path d="M74.6105 10.219C74.0998 9.74631 73.5021 9.38156 72.8519 9.14587C71.4552 8.64653 69.9332 8.64653 68.5365 9.14587C67.886 9.38139 67.288 9.74615 66.7772 10.219C66.2762 10.6892 65.8759 11.2597 65.6015 11.8948C65.3179 12.5876 65.1719 13.3307 65.1719 14.0812C65.1719 14.8318 65.3179 15.5749 65.6015 16.2677C65.8749 16.9045 66.2752 17.4766 66.7772 17.9477C67.2875 18.421 67.8857 18.7856 68.5365 19.0201C69.933 19.5203 71.4554 19.5203 72.8519 19.0201C73.5024 18.7854 74.1003 18.4208 74.6105 17.9477C75.1124 17.4766 75.5128 16.9045 75.7862 16.2677C76.0698 15.5749 76.2158 14.8318 76.2158 14.0812C76.2158 13.3307 76.0698 12.5876 75.7862 11.8948C75.5117 11.2597 75.1115 10.6892 74.6105 10.219ZM72.504 15.9352C72.0073 16.3908 71.3624 16.6429 70.6939 16.6429C70.0253 16.6429 69.3804 16.3908 68.8837 15.9352C68.4661 15.4104 68.2383 14.7555 68.2383 14.0802C68.2383 13.4048 68.4661 12.75 68.8837 12.2252C69.3804 11.7696 70.0253 11.5174 70.6939 11.5174C71.3624 11.5174 72.0073 11.7696 72.504 12.2252C72.9216 12.75 73.1494 13.4048 73.1494 14.0802C73.1494 14.7555 72.9216 15.4104 72.504 15.9352Z" fill="white"/>
<path d="M80.2848 9.09131H78.6396V19.1412H80.2848V9.09131Z" fill="white"/>
<path d="M79.4623 3.9379C79.3027 3.93482 79.1443 3.96566 78.9972 4.02846C78.85 4.09126 78.7174 4.18463 78.6077 4.3026C78.4404 4.47432 78.3268 4.69261 78.2812 4.92996C78.2356 5.16731 78.26 5.4131 78.3513 5.63635C78.4427 5.85961 78.5969 6.05033 78.7945 6.18449C78.9922 6.31866 79.2244 6.39025 79.4619 6.39025C79.6995 6.39025 79.9317 6.31866 80.1293 6.18449C80.327 6.05033 80.4812 5.85961 80.5725 5.63635C80.6639 5.4131 80.6883 5.16731 80.6426 4.92996C80.597 4.69261 80.4834 4.47432 80.3161 4.3026C80.2066 4.18458 80.0741 4.09117 79.9271 4.02836C79.78 3.96555 79.6217 3.93474 79.4623 3.9379Z" fill="white"/>
<path d="M92.4547 10.3401C91.9919 9.85902 91.4352 9.48201 90.8205 9.23341C90.1459 8.96266 89.426 8.82786 88.7009 8.83651C88.0179 8.82853 87.3424 8.98314 86.7285 9.28801C86.1238 9.59419 85.5885 10.0255 85.1568 10.5543H85.1129V9.09131H83.4697V24.0377H85.1129V17.3597H85.1548C85.504 17.9722 86.013 18.4742 86.6253 18.8101C87.3362 19.2154 88.1408 19.4194 88.9553 19.4009C89.6222 19.4052 90.2828 19.2699 90.8961 19.0033C91.4883 18.7475 92.0229 18.3712 92.467 17.8973C92.918 17.413 93.2727 16.8444 93.5114 16.2229C94.0174 14.8669 94.0174 13.3691 93.5114 12.0131C93.2706 11.3901 92.9115 10.8216 92.4547 10.3401ZM91.8744 15.5901C91.7211 16.0277 91.4812 16.4286 91.1696 16.768C90.858 17.1074 90.4813 17.3781 90.0629 17.5634C89.1376 17.9492 88.1006 17.9492 87.1754 17.5634C86.7563 17.3781 86.3791 17.1072 86.0671 16.7674C85.7552 16.4276 85.5151 16.0262 85.3617 15.588C85.0388 14.6356 85.0388 13.6004 85.3617 12.648C85.5151 12.2098 85.7552 11.8084 86.0671 11.4686C86.3791 11.1288 86.7563 10.8579 87.1754 10.6726C88.1006 10.2868 89.1376 10.2868 90.0629 10.6726C90.4819 10.8579 90.8591 11.1288 91.1711 11.4686C91.483 11.8084 91.7231 12.2098 91.8765 12.648C92.1994 13.6004 92.1994 14.6356 91.8765 15.588L91.8744 15.5901Z" fill="white"/>
<path d="M102.178 14.1201C101.866 13.882 101.517 13.6972 101.147 13.5727C100.74 13.4329 100.324 13.3216 99.9024 13.2395C99.5862 13.1844 99.273 13.1129 98.964 13.0253C98.6886 12.9491 98.4204 12.8484 98.1624 12.7243C97.9557 12.6288 97.769 12.4938 97.6124 12.3267C97.4791 12.1771 97.4075 11.9811 97.4123 11.7793C97.4091 11.5614 97.4717 11.3478 97.5918 11.1675C97.71 10.9893 97.8645 10.8391 98.0448 10.7272C98.2378 10.6084 98.448 10.5215 98.6677 10.4696C98.8926 10.4129 99.1235 10.384 99.3552 10.3835C99.7962 10.3695 100.232 10.4852 100.61 10.7167C100.951 10.9353 101.237 11.2333 101.443 11.5861L102.814 10.6628C102.51 10.0525 102.017 9.56155 101.411 9.26627C100.8 8.97743 100.134 8.83084 99.4604 8.83717C99.0038 8.83606 98.5494 8.90111 98.1108 9.03037C97.6904 9.15245 97.2915 9.34145 96.929 9.59037C96.5824 9.82864 96.2938 10.1445 96.0854 10.5137C95.8697 10.9068 95.7605 11.3514 95.7692 11.8017C95.752 12.2425 95.8502 12.68 96.0538 13.0694C96.2395 13.395 96.4988 13.671 96.8101 13.8744C97.1537 14.095 97.5264 14.265 97.9169 14.3791C98.3391 14.5079 98.782 14.6224 99.2459 14.7228C99.5135 14.7802 99.7737 14.8446 100.026 14.916C100.263 14.9807 100.49 15.0782 100.701 15.2058C100.887 15.3181 101.049 15.4679 101.176 15.6461C101.302 15.8434 101.365 16.0762 101.355 16.3118C101.363 16.5593 101.297 16.8033 101.165 17.0118C101.034 17.2094 100.861 17.3745 100.659 17.4948C100.441 17.6275 100.202 17.7221 99.9526 17.7748C99.6997 17.8313 99.4416 17.8602 99.1826 17.8609C98.6701 17.8811 98.1623 17.7545 97.7169 17.4955C97.3072 17.23 96.9467 16.893 96.6519 16.5001L95.3457 17.5312C95.7501 18.1705 96.3241 18.6802 97.0012 19.0012C97.6952 19.2816 98.4376 19.4169 99.184 19.3988C99.6702 19.3992 100.155 19.3416 100.628 19.2273C101.078 19.1213 101.506 18.9361 101.893 18.6799C102.263 18.4298 102.57 18.094 102.787 17.6999C103.023 17.2526 103.14 16.75 103.125 16.2425C103.139 15.8061 103.052 15.3726 102.872 14.9762C102.709 14.6401 102.471 14.3471 102.178 14.1201Z" fill="white"/>
<path d="M114.03 16.7577V9.09131H112.385V13.9913C112.39 14.5196 112.33 15.0464 112.205 15.5593C112.1 15.999 111.913 16.4142 111.655 16.7829C111.41 17.1257 111.084 17.3991 110.706 17.5774C110.272 17.7738 109.8 17.8695 109.325 17.8574C109.003 17.8839 108.68 17.8314 108.383 17.7043C108.086 17.5773 107.823 17.3794 107.616 17.1273C107.221 16.5418 107.028 15.8395 107.066 15.1302V9.09131H105.421V15.2975C105.416 15.8601 105.491 16.4205 105.643 16.9614C105.775 17.441 106.01 17.8849 106.33 18.2613C106.651 18.6293 107.051 18.9168 107.499 19.1013C108.033 19.3135 108.603 19.4158 109.176 19.4023C109.561 19.4055 109.945 19.351 110.315 19.2406C110.649 19.1416 110.968 18.9973 111.264 18.8115C111.533 18.6428 111.777 18.4369 111.991 18.1997C112.183 17.9887 112.343 17.7497 112.466 17.4906H112.508C112.508 17.7776 112.515 18.0576 112.529 18.3306C112.543 18.6036 112.55 18.8757 112.55 19.1468H114.111C114.111 18.8169 114.097 18.4517 114.069 18.0513C114.04 17.6509 114.027 17.2197 114.03 16.7577Z" fill="white"/>
<path d="M131.81 11.2928C131.7 10.8065 131.484 10.3518 131.177 9.9628C130.867 9.5864 130.468 9.29717 130.017 9.1228C129.449 8.91424 128.848 8.81594 128.245 8.833C127.59 8.80388 126.943 8.98004 126.389 9.3377C125.876 9.71239 125.445 10.1915 125.124 10.7447C125.04 10.5725 124.931 10.3756 124.797 10.1539C124.648 9.91455 124.459 9.70369 124.238 9.5309C123.967 9.32114 123.665 9.15582 123.344 9.0409C122.913 8.89323 122.459 8.82404 122.004 8.8365C121.619 8.83327 121.235 8.88775 120.866 8.9982C120.532 9.09721 120.212 9.24154 119.916 9.4273C119.647 9.59627 119.403 9.80214 119.189 10.0391C118.997 10.2501 118.837 10.4891 118.715 10.7482H118.672C118.672 10.4612 118.665 10.1826 118.651 9.9082C118.638 9.6338 118.63 9.3643 118.63 9.092H117.069C117.069 9.42194 117.083 9.7871 117.111 10.1875C117.139 10.5879 117.153 11.0175 117.153 11.4762V19.1419H118.8V14.2461C118.795 13.7176 118.855 13.1905 118.979 12.6774C119.084 12.2376 119.271 11.8222 119.529 11.4538C119.774 11.1109 120.1 10.8374 120.478 10.6593C120.912 10.4628 121.385 10.3671 121.86 10.3793C122.141 10.3548 122.424 10.4067 122.68 10.5296C122.935 10.6526 123.154 10.8422 123.315 11.0793C123.668 11.8158 123.821 12.6352 123.758 13.4523V19.1433H125.4V13.3431C125.395 12.9298 125.463 12.5189 125.601 12.13C125.722 11.7852 125.909 11.468 126.151 11.1962C126.378 10.9417 126.655 10.7371 126.962 10.5949C127.274 10.4514 127.612 10.3781 127.954 10.38C128.36 10.365 128.764 10.4457 129.135 10.6159C129.427 10.7596 129.68 10.9737 129.873 11.2396C130.058 11.5028 130.187 11.8025 130.253 12.1195C130.323 12.4512 130.358 12.7896 130.358 13.1289V19.1419H132V13.0428C132.006 12.4538 131.942 11.8662 131.81 11.2928Z" fill="white"/>
</svg>
