<svg width="34" height="30" viewBox="0 0 34 30" fill="none" xmlns="http://www.w3.org/2000/svg">
<path fill-rule="evenodd" clip-rule="evenodd" d="M29.7664 1.65011C25.3664 -1.34989 19.933 0.0501137 16.9997 3.48345C14.0664 0.0501137 8.63304 -1.36655 4.23304 1.65011C1.8997 3.25011 0.433038 5.95011 0.333038 8.80011C0.0997043 15.2668 5.83304 20.4501 14.583 28.4001L14.7497 28.5501C16.0164 29.7001 17.9664 29.7001 19.233 28.5335L19.4164 28.3668C28.1664 20.4334 33.883 15.2501 33.6664 8.78345C33.5664 5.95011 32.0997 3.25011 29.7664 1.65011V1.65011ZM17.1664 25.9168L16.9997 26.0834L16.833 25.9168C8.8997 18.7334 3.66637 13.9834 3.66637 9.16678C3.66637 5.83345 6.16637 3.33345 9.4997 3.33345C12.0664 3.33345 14.5664 4.98345 15.4497 7.26678H18.5664C19.433 4.98345 21.933 3.33345 24.4997 3.33345C27.833 3.33345 30.333 5.83345 30.333 9.16678C30.333 13.9834 25.0997 18.7334 17.1664 25.9168Z" fill="#3B31CE"/>
</svg>
