<svg width="36" height="35" viewBox="0 0 36 35" fill="none" xmlns="http://www.w3.org/2000/svg">
<path d="M27.6175 16.1318C28.4168 14.5989 28.8342 12.8956 28.8341 11.1668C28.8341 8.29365 27.6927 5.53815 25.6611 3.50651C23.6295 1.47486 20.874 0.333496 18.0008 0.333496C15.1276 0.333496 12.3721 1.47486 10.3405 3.50651C8.30881 5.53815 7.16745 8.29365 7.16745 11.1668C7.16736 12.8956 7.58474 14.5989 8.38412 16.1318L0.0507812 34.4552L9.47411 32.1002L13.8341 34.2818L18.0008 24.5635L22.1674 34.2818L26.5291 32.1002L35.9491 34.4552L27.6175 16.1318ZM18.0008 3.66683C19.4841 3.66683 20.9342 4.1067 22.1676 4.93081C23.4009 5.75492 24.3622 6.92626 24.9299 8.2967C25.4975 9.66715 25.6461 11.1751 25.3567 12.63C25.0673 14.0849 24.353 15.4212 23.3041 16.4701C22.2552 17.519 20.9188 18.2333 19.464 18.5227C18.0091 18.8121 16.5011 18.6636 15.1307 18.0959C13.7602 17.5283 12.5889 16.567 11.7648 15.3336C10.9406 14.1002 10.5008 12.6502 10.5008 11.1668C10.503 9.17838 11.2939 7.27201 12.6999 5.86596C14.106 4.45992 16.0123 3.66903 18.0008 3.66683ZM12.1674 29.7185L9.86078 28.5668L5.94745 29.5452L10.6824 19.1302C12.0653 20.4072 13.7579 21.3006 15.5925 21.7218L12.1674 29.7185ZM26.1425 28.5668L23.8374 29.7185L20.4108 21.7185C22.2453 21.2972 23.9379 20.4038 25.3208 19.1268L30.0558 29.5418L26.1425 28.5668Z" fill="#3B31CE"/>
</svg>
