<svg width="36" height="35" viewBox="0 0 36 35" fill="none" xmlns="http://www.w3.org/2000/svg">
<path d="M27.6165 16.1318C28.4158 14.5989 28.8332 12.8956 28.8331 11.1668C28.8331 8.29365 27.6918 5.53815 25.6601 3.50651C23.6285 1.47486 20.873 0.333496 17.9998 0.333496C15.1266 0.333496 12.3711 1.47486 10.3395 3.50651C8.30784 5.53815 7.16647 8.29365 7.16647 11.1668C7.16638 12.8956 7.58377 14.5989 8.38314 16.1318L0.0498047 34.4552L9.47314 32.1002L13.8331 34.2818L17.9998 24.5635L22.1665 34.2818L26.5281 32.1002L35.9481 34.4552L27.6165 16.1318ZM17.9998 3.66683C19.4832 3.66683 20.9332 4.1067 22.1666 4.93081C23.3999 5.75492 24.3612 6.92626 24.9289 8.2967C25.4966 9.66715 25.6451 11.1751 25.3557 12.63C25.0663 14.0849 24.352 15.4212 23.3031 16.4701C22.2542 17.519 20.9178 18.2333 19.463 18.5227C18.0081 18.8121 16.5001 18.6636 15.1297 18.0959C13.7592 17.5283 12.5879 16.567 11.7638 15.3336C10.9397 14.1002 10.4998 12.6502 10.4998 11.1668C10.502 9.17838 11.2929 7.27201 12.6989 5.86596C14.105 4.45992 16.0114 3.66904 17.9998 3.66683ZM12.1665 29.7185L9.85981 28.5668L5.94647 29.5452L10.6815 19.1302C12.0643 20.4072 13.7569 21.3006 15.5915 21.7218L12.1665 29.7185ZM26.1415 28.5668L23.8365 29.7185L20.4098 21.7185C22.2444 21.2972 23.937 20.4038 25.3198 19.1268L30.0548 29.5418L26.1415 28.5668Z" fill="white"/>
</svg>
