<svg width="32" height="32" viewBox="0 0 32 32" fill="none" xmlns="http://www.w3.org/2000/svg">
<path d="M28.9633 3.03661C27.0879 1.16139 24.5445 0.10791 21.8925 0.10791C19.2404 0.10791 16.697 1.16139 14.8216 3.03661L3.03662 14.8216C1.18649 16.7021 0.15438 19.2375 0.165122 21.8756C0.175864 24.5136 1.22858 27.0405 3.09397 28.9059C4.95936 30.7713 7.48629 31.824 10.1243 31.8348C12.7624 31.8455 15.2978 30.8134 17.1783 28.9633L28.9633 17.1783C30.8357 15.3014 31.8872 12.7585 31.8872 10.1074C31.8872 7.45634 30.8357 4.91347 28.9633 3.03661V3.03661ZM14.8216 26.6066C13.5713 27.8569 11.8756 28.5593 10.1075 28.5593C8.3393 28.5593 6.64356 27.8569 5.39329 26.6066C4.14301 25.3563 3.44062 23.6606 3.44062 21.8924C3.44062 20.1243 4.14301 18.4285 5.39329 17.1783L10.1066 12.4633L19.535 21.8933L14.8216 26.6066ZM26.6066 14.8216L21.8916 19.5366L12.4633 10.1066L17.1783 5.39328C18.4286 4.143 20.1243 3.4406 21.8925 3.4406C23.6606 3.4406 25.3563 4.143 26.6066 5.39328C27.8569 6.64355 28.5593 8.33929 28.5593 10.1074C28.5593 11.8756 27.8569 13.5713 26.6066 14.8216V14.8216Z" fill="#625AD8"/>
</svg>
