<svg width="34" height="34" viewBox="0 0 34 34" fill="none" xmlns="http://www.w3.org/2000/svg">
<path fill-rule="evenodd" clip-rule="evenodd" d="M16.9997 0.333008C7.83301 0.333008 0.333008 7.83301 0.333008 16.9997C0.333008 26.1663 7.83301 33.6663 16.9997 33.6663C26.1663 33.6663 33.6663 26.1663 33.6663 16.9997C33.6663 7.83301 26.1663 0.333008 16.9997 0.333008ZM16.9997 30.333C9.64967 30.333 3.66634 24.3497 3.66634 16.9997C3.66634 9.64967 9.64967 3.66634 16.9997 3.66634C24.3497 3.66634 30.333 9.64967 30.333 16.9997C30.333 24.3497 24.3497 30.333 16.9997 30.333ZM17.833 8.66634H15.333V18.6663L23.9997 23.9997L25.333 21.833L17.833 17.333V8.66634Z" fill="#3B31CE"/>
</svg>
