<svg width="32" height="30" viewBox="0 0 32 30" fill="none" xmlns="http://www.w3.org/2000/svg">
<path d="M31.6667 13.3333C31.6705 12.4158 31.4217 11.5149 30.9477 10.7293C30.4736 9.94375 29.7925 9.30375 28.979 8.87943C28.1655 8.45511 27.2509 8.26282 26.3354 8.32363C25.4198 8.38443 24.5387 8.69599 23.7884 9.22417C23.0382 9.75236 22.4477 10.4768 22.0817 11.3182C21.7157 12.1596 21.5883 13.0854 21.7134 13.9944C21.8385 14.9034 22.2113 15.7604 22.791 16.4716C23.3707 17.1828 24.1349 17.7208 25 18.0267V26.6667H11.6667V20C13.876 19.9974 15.9941 19.1185 17.5563 17.5563C19.1185 15.9941 19.9974 13.876 20 11.6667V0H15V3.33333H16.6667V11.6667C16.6667 12.9927 16.1399 14.2645 15.2022 15.2022C14.2645 16.1399 12.9927 16.6667 11.6667 16.6667H8.33333C7.00725 16.6667 5.73548 16.1399 4.7978 15.2022C3.86012 14.2645 3.33333 12.9927 3.33333 11.6667V3.33333H5V0H0V11.6667C0.00264643 13.876 0.88147 15.9941 2.4437 17.5563C4.00593 19.1185 6.12401 19.9974 8.33333 20V26.6667C8.33333 27.5507 8.68452 28.3986 9.30965 29.0237C9.93477 29.6488 10.7826 30 11.6667 30H25C25.8841 30 26.7319 29.6488 27.357 29.0237C27.9821 28.3986 28.3333 27.5507 28.3333 26.6667V18.0267C29.3048 17.6832 30.1465 17.0479 30.7432 16.2078C31.3399 15.3677 31.6624 14.3638 31.6667 13.3333ZM26.6667 15C26.337 15 26.0148 14.9023 25.7407 14.7191C25.4666 14.536 25.253 14.2757 25.1269 13.9711C25.0007 13.6666 24.9677 13.3315 25.032 13.0082C25.0963 12.6849 25.2551 12.3879 25.4882 12.1548C25.7212 11.9217 26.0182 11.763 26.3415 11.6987C26.6648 11.6344 26.9999 11.6674 27.3045 11.7935C27.609 11.9197 27.8693 12.1333 28.0525 12.4074C28.2356 12.6815 28.3333 13.0037 28.3333 13.3333C28.3333 13.7754 28.1577 14.1993 27.8452 14.5118C27.5326 14.8244 27.1087 15 26.6667 15Z" fill="#625AD8"/>
</svg>
